<svg width="25" height="22" viewBox="0 0 25 22" fill="none" xmlns="http://www.w3.org/2000/svg">
<path d="M21.8928 7.93657C24.0331 8.69457 24.3006 11.2361 22.2049 12.2616L19.485 13.6885C18.6825 14.0898 18.192 14.8032 18.1028 15.6058L17.9244 18.3703C17.7461 20.3767 14.9816 21.3577 13.2427 20.02L10.8349 18.1919C10.1215 17.6568 9.18512 17.4785 8.29335 17.6568L5.21675 18.3703C2.94274 18.8607 0.98085 16.8988 1.91721 15.0707L3.21027 12.5292C3.56698 11.7712 3.4778 10.924 2.98733 10.2998L1.24838 7.93657C-9.48496e-05 6.24221 1.5605 4.05738 3.8791 4.23573L7.04487 4.50326C7.98123 4.59244 8.873 4.28032 9.49724 3.65608L11.5929 1.56043C13.1089 -0.000166066 16.0071 0.624072 16.4976 2.58596L17.211 5.26127C17.434 6.01927 18.0582 6.6881 18.95 6.95563L21.8928 7.93657ZM7.93664 10.6119C8.73923 10.6119 9.31888 9.98764 9.31888 9.22964C9.31888 8.51622 8.65006 7.84739 7.93664 7.84739C7.17864 7.84739 6.5544 8.51622 6.5544 9.22964C6.5544 9.98764 7.13405 10.6119 7.93664 10.6119ZM13.644 14.8924C14.4466 14.8924 15.0708 14.2681 15.0262 13.4655C15.0262 12.7521 14.3574 12.0833 13.644 12.0833C12.886 12.0833 12.2617 12.7075 12.2617 13.4655C12.2617 14.2235 12.8414 14.8924 13.644 14.8924ZM14.3574 9.18505C14.7587 9.18505 15.0708 8.87293 15.0262 8.51622C15.0262 8.15951 14.7141 7.84739 14.3574 7.84739C14.0007 7.84739 13.6885 8.15951 13.6885 8.51622C13.6885 8.87293 13.9561 9.18505 14.3574 9.18505Z" fill="white"/>
</svg>
