<svg width="953" height="751" viewBox="0 0 953 751" fill="none" xmlns="http://www.w3.org/2000/svg">
<mask id="path-1-outside-1_75_224" maskUnits="userSpaceOnUse" x="8" y="576.733" width="935" height="137" fill="black">
<rect fill="white" x="8" y="576.733" width="935" height="137"/>
<path d="M79.6435 591.983C70.8544 588.251 62.1255 586.385 53.4569 586.385C35.8787 586.385 27.0896 592.886 27.0896 605.889C27.0896 611.548 29.0762 616.846 33.0493 621.782C37.0225 626.598 41.8384 630.932 47.4971 634.785C53.1559 638.517 58.8146 642.37 64.4733 646.343C70.132 650.316 74.948 655.072 78.9211 660.61C82.8943 666.149 84.8808 672.169 84.8808 678.67C84.8808 689.626 81.2087 697.934 73.8644 703.593C66.5201 709.131 56.3464 711.9 43.3434 711.9C30.4608 711.9 19.4443 708.589 10.2941 701.967L14.6284 695.466C23.2971 701.124 32.8085 703.954 43.1628 703.954C53.5171 703.954 61.4633 701.907 67.0017 697.813C72.54 693.6 75.3092 687.58 75.3092 679.754C75.3092 674.336 73.3226 669.219 69.3494 664.403C65.3763 659.467 60.5604 655.072 54.9016 651.219C49.2429 647.246 43.5842 643.213 37.9255 639.119C32.2668 635.026 27.4508 630.15 23.4777 624.491C19.5045 618.832 17.518 612.752 17.518 606.251C17.518 597.702 20.6483 590.96 26.909 586.024C33.2901 580.967 41.8384 578.439 52.5539 578.439C63.3897 578.439 73.443 580.606 82.7137 584.94L79.6435 591.983ZM122.944 709.733V592.525H177.665V599.749H131.252V642.37H173.15V649.413H131.252V702.148H179.471V709.733H122.944ZM221.001 669.098L204.206 709.733H195.718L244.84 591.803H249.716L299.2 709.733H289.99L273.013 669.098H221.001ZM246.827 605.167C245.021 610.585 243.395 615.1 241.951 618.712L223.891 662.055H270.124L252.245 618.892C249.476 612.15 247.67 607.575 246.827 605.167ZM393.076 709.733V592.525H401.384V702.148H455.202V709.733H393.076ZM488.135 669.098L471.34 709.733H462.851L511.974 591.803H516.85L566.334 709.733H557.123L540.147 669.098H488.135ZM513.961 605.167C512.155 610.585 510.529 615.1 509.084 618.712L491.025 662.055H537.258L519.378 618.892C516.609 612.15 514.803 607.575 513.961 605.167ZM611.735 709.733H603.609V667.834L559.362 592.525H569.295L603.428 650.678C606.077 655.975 607.582 658.804 607.943 659.166C608.665 657.6 610.17 654.831 612.458 650.858L646.591 592.525H655.982L611.735 668.195V709.733ZM682.256 709.733V592.525H736.977V599.749H690.563V642.37H732.462V649.413H690.563V702.148H738.783V709.733H682.256ZM774.534 709.733V593.067C784.888 592.224 793.677 591.803 800.901 591.803C811.977 591.803 821.128 594.692 828.352 600.471C835.576 606.13 839.187 614.257 839.187 624.852C839.187 631.956 837.141 638.517 833.047 644.537C828.954 650.557 824.318 655.433 819.141 659.166C833.469 678.189 842.318 689.566 845.689 693.299C852.552 700.402 860.016 704.435 868.083 705.399L867.902 710.997C861.16 710.877 855.682 709.914 851.468 708.108C847.254 706.181 843.04 702.991 838.826 698.536C834.733 694.081 825.643 682.101 811.556 662.597C801.804 662.597 792.232 662.296 782.841 661.694V709.733H774.534ZM807.041 655.734C811.737 655.734 816.793 652.604 822.211 646.343C827.629 640.082 830.338 632.798 830.338 624.491C830.338 616.183 827.509 609.862 821.85 605.528C816.191 601.194 808.847 599.027 799.817 599.027C795.001 599.027 789.343 599.267 782.841 599.749V654.831C791.51 655.433 799.576 655.734 807.041 655.734ZM910.575 597.582C904.074 597.582 898.776 599.147 894.683 602.277C890.589 605.408 888.542 609.802 888.542 615.461C888.542 621.963 891.251 627.802 896.669 632.979C900.522 636.711 905.458 640.684 911.478 644.898C917.619 648.992 921.833 651.942 924.12 653.748C926.408 655.554 929.177 658.022 932.428 661.152C938.327 667.052 941.277 673.854 941.277 681.56C941.277 691.553 937.906 699.138 931.164 704.315C924.542 709.372 915.211 711.9 903.171 711.9C891.251 711.9 881.258 708.77 873.192 702.509L877.526 696.188C885.713 701.726 894.382 704.496 903.532 704.496C912.682 704.496 919.786 702.569 924.843 698.716C930.02 694.864 932.608 689.446 932.608 682.463C932.608 676.443 930.02 670.904 924.843 665.848C921.231 662.236 916.355 658.323 910.214 654.109C904.194 649.895 899.98 646.885 897.572 645.079C895.164 643.153 892.335 640.624 889.084 637.494C882.944 631.354 879.874 624.25 879.874 616.183C879.874 608.117 882.703 601.796 888.362 597.221C894.141 592.646 902.087 590.358 912.201 590.358C922.314 590.358 931.404 592.345 939.471 596.318L936.401 603C928.936 599.388 920.328 597.582 910.575 597.582Z"/>
</mask>
<path d="M79.6435 591.983C70.8544 588.251 62.1255 586.385 53.4569 586.385C35.8787 586.385 27.0896 592.886 27.0896 605.889C27.0896 611.548 29.0762 616.846 33.0493 621.782C37.0225 626.598 41.8384 630.932 47.4971 634.785C53.1559 638.517 58.8146 642.37 64.4733 646.343C70.132 650.316 74.948 655.072 78.9211 660.61C82.8943 666.149 84.8808 672.169 84.8808 678.67C84.8808 689.626 81.2087 697.934 73.8644 703.593C66.5201 709.131 56.3464 711.9 43.3434 711.9C30.4608 711.9 19.4443 708.589 10.2941 701.967L14.6284 695.466C23.2971 701.124 32.8085 703.954 43.1628 703.954C53.5171 703.954 61.4633 701.907 67.0017 697.813C72.54 693.6 75.3092 687.58 75.3092 679.754C75.3092 674.336 73.3226 669.219 69.3494 664.403C65.3763 659.467 60.5604 655.072 54.9016 651.219C49.2429 647.246 43.5842 643.213 37.9255 639.119C32.2668 635.026 27.4508 630.15 23.4777 624.491C19.5045 618.832 17.518 612.752 17.518 606.251C17.518 597.702 20.6483 590.96 26.909 586.024C33.2901 580.967 41.8384 578.439 52.5539 578.439C63.3897 578.439 73.443 580.606 82.7137 584.94L79.6435 591.983ZM122.944 709.733V592.525H177.665V599.749H131.252V642.37H173.15V649.413H131.252V702.148H179.471V709.733H122.944ZM221.001 669.098L204.206 709.733H195.718L244.84 591.803H249.716L299.2 709.733H289.99L273.013 669.098H221.001ZM246.827 605.167C245.021 610.585 243.395 615.1 241.951 618.712L223.891 662.055H270.124L252.245 618.892C249.476 612.15 247.67 607.575 246.827 605.167ZM393.076 709.733V592.525H401.384V702.148H455.202V709.733H393.076ZM488.135 669.098L471.34 709.733H462.851L511.974 591.803H516.85L566.334 709.733H557.123L540.147 669.098H488.135ZM513.961 605.167C512.155 610.585 510.529 615.1 509.084 618.712L491.025 662.055H537.258L519.378 618.892C516.609 612.15 514.803 607.575 513.961 605.167ZM611.735 709.733H603.609V667.834L559.362 592.525H569.295L603.428 650.678C606.077 655.975 607.582 658.804 607.943 659.166C608.665 657.6 610.17 654.831 612.458 650.858L646.591 592.525H655.982L611.735 668.195V709.733ZM682.256 709.733V592.525H736.977V599.749H690.563V642.37H732.462V649.413H690.563V702.148H738.783V709.733H682.256ZM774.534 709.733V593.067C784.888 592.224 793.677 591.803 800.901 591.803C811.977 591.803 821.128 594.692 828.352 600.471C835.576 606.13 839.187 614.257 839.187 624.852C839.187 631.956 837.141 638.517 833.047 644.537C828.954 650.557 824.318 655.433 819.141 659.166C833.469 678.189 842.318 689.566 845.689 693.299C852.552 700.402 860.016 704.435 868.083 705.399L867.902 710.997C861.16 710.877 855.682 709.914 851.468 708.108C847.254 706.181 843.04 702.991 838.826 698.536C834.733 694.081 825.643 682.101 811.556 662.597C801.804 662.597 792.232 662.296 782.841 661.694V709.733H774.534ZM807.041 655.734C811.737 655.734 816.793 652.604 822.211 646.343C827.629 640.082 830.338 632.798 830.338 624.491C830.338 616.183 827.509 609.862 821.85 605.528C816.191 601.194 808.847 599.027 799.817 599.027C795.001 599.027 789.343 599.267 782.841 599.749V654.831C791.51 655.433 799.576 655.734 807.041 655.734ZM910.575 597.582C904.074 597.582 898.776 599.147 894.683 602.277C890.589 605.408 888.542 609.802 888.542 615.461C888.542 621.963 891.251 627.802 896.669 632.979C900.522 636.711 905.458 640.684 911.478 644.898C917.619 648.992 921.833 651.942 924.12 653.748C926.408 655.554 929.177 658.022 932.428 661.152C938.327 667.052 941.277 673.854 941.277 681.56C941.277 691.553 937.906 699.138 931.164 704.315C924.542 709.372 915.211 711.9 903.171 711.9C891.251 711.9 881.258 708.77 873.192 702.509L877.526 696.188C885.713 701.726 894.382 704.496 903.532 704.496C912.682 704.496 919.786 702.569 924.843 698.716C930.02 694.864 932.608 689.446 932.608 682.463C932.608 676.443 930.02 670.904 924.843 665.848C921.231 662.236 916.355 658.323 910.214 654.109C904.194 649.895 899.98 646.885 897.572 645.079C895.164 643.153 892.335 640.624 889.084 637.494C882.944 631.354 879.874 624.25 879.874 616.183C879.874 608.117 882.703 601.796 888.362 597.221C894.141 592.646 902.087 590.358 912.201 590.358C922.314 590.358 931.404 592.345 939.471 596.318L936.401 603C928.936 599.388 920.328 597.582 910.575 597.582Z" fill="white"/>
<path d="M79.6435 591.983L79.0552 593.369L80.4274 593.951L81.0231 592.585L79.6435 591.983ZM33.0493 621.782L31.8769 622.726L31.8827 622.733L31.8884 622.74L33.0493 621.782ZM47.4971 634.785L46.6502 636.029L46.6593 636.035L46.6685 636.041L47.4971 634.785ZM64.4733 646.343L65.3381 645.111L65.3381 645.111L64.4733 646.343ZM78.9211 660.61L77.6983 661.488L77.6983 661.488L78.9211 660.61ZM73.8644 703.593L74.7705 704.794L74.7767 704.79L74.7829 704.785L73.8644 703.593ZM10.2941 701.967L9.04184 701.132L8.23852 702.337L9.41174 703.186L10.2941 701.967ZM14.6284 695.466L15.4511 694.205L14.203 693.391L13.3762 694.631L14.6284 695.466ZM67.0017 697.813L67.8962 699.024L67.9046 699.018L67.913 699.011L67.0017 697.813ZM69.3494 664.403L68.177 665.347L68.1827 665.354L68.1885 665.361L69.3494 664.403ZM54.9016 651.219L54.0368 652.451L54.0457 652.457L54.0547 652.463L54.9016 651.219ZM37.9255 639.119L38.8076 637.9L38.8076 637.9L37.9255 639.119ZM23.4777 624.491L24.7094 623.626L24.7094 623.626L23.4777 624.491ZM26.909 586.024L27.8408 587.205L27.8437 587.203L26.909 586.024ZM82.7137 584.94L84.0933 585.541L84.679 584.198L83.3511 583.577L82.7137 584.94ZM79.6435 591.983L80.2318 590.598C71.2756 586.795 62.3473 584.88 53.4569 584.88V586.385V587.89C61.9038 587.89 70.4332 589.707 79.0552 593.369L79.6435 591.983ZM53.4569 586.385V584.88C44.5263 584.88 37.555 586.524 32.7864 590.051C27.9329 593.641 25.5846 599.013 25.5846 605.889H27.0896H28.5946C28.5946 599.763 30.6409 595.382 34.5764 592.471C38.5969 589.497 44.8093 587.89 53.4569 587.89V586.385ZM27.0896 605.889H25.5846C25.5846 611.933 27.7159 617.556 31.8769 622.726L33.0493 621.782L34.2217 620.838C30.4365 616.135 28.5946 611.164 28.5946 605.889H27.0896ZM33.0493 621.782L31.8884 622.74C35.9604 627.675 40.885 632.104 46.6502 636.029L47.4971 634.785L48.3441 633.541C42.7918 629.761 38.0845 625.52 34.2102 620.824L33.0493 621.782ZM47.4971 634.785L46.6685 636.041C52.3148 639.765 57.9615 643.61 63.6085 647.575L64.4733 646.343L65.3381 645.111C59.6677 641.13 53.9969 637.269 48.3258 633.529L47.4971 634.785ZM64.4733 646.343L63.6085 647.575C69.1308 651.452 73.8251 656.089 77.6983 661.488L78.9211 660.61L80.144 659.733C76.0708 654.055 71.1332 649.18 65.3381 645.111L64.4733 646.343ZM78.9211 660.61L77.6983 661.488C81.4974 666.783 83.3758 672.499 83.3758 678.67H84.8808H86.3858C86.3858 671.838 84.2911 665.514 80.144 659.733L78.9211 660.61ZM84.8808 678.67H83.3758C83.3758 689.255 79.8508 697.08 72.9458 702.4L73.8644 703.593L74.7829 704.785C82.5665 698.788 86.3858 689.998 86.3858 678.67H84.8808ZM73.8644 703.593L72.9582 702.391C65.9635 707.666 56.151 710.395 43.3434 710.395V711.9V713.405C56.5418 713.405 67.0767 710.596 74.7705 704.794L73.8644 703.593ZM43.3434 711.9V710.395C30.7313 710.395 20.0348 707.159 11.1764 700.748L10.2941 701.967L9.41174 703.186C18.8538 710.02 30.1902 713.405 43.3434 713.405V711.9ZM10.2941 701.967L11.5463 702.802L15.8806 696.301L14.6284 695.466L13.3762 694.631L9.04184 701.132L10.2941 701.967ZM14.6284 695.466L13.8057 696.726C22.7191 702.544 32.5164 705.459 43.1628 705.459V703.954V702.449C33.1006 702.449 23.875 699.704 15.4511 694.205L14.6284 695.466ZM43.1628 703.954V705.459C53.6854 705.459 61.9979 703.383 67.8962 699.024L67.0017 697.813L66.1071 696.603C60.9288 700.431 53.3487 702.449 43.1628 702.449V703.954ZM67.0017 697.813L67.913 699.011C73.8756 694.474 76.8141 687.983 76.8141 679.754H75.3092H73.8042C73.8042 687.177 71.2044 692.725 66.0904 696.616L67.0017 697.813ZM75.3092 679.754H76.8141C76.8141 673.934 74.6702 668.487 70.5103 663.445L69.3494 664.403L68.1885 665.361C71.975 669.95 73.8042 674.738 73.8042 679.754H75.3092ZM69.3494 664.403L70.5218 663.459C66.4485 658.398 61.5202 653.905 55.7486 649.975L54.9016 651.219L54.0547 652.463C59.6005 656.239 64.3041 660.535 68.177 665.347L69.3494 664.403ZM54.9016 651.219L55.7664 649.988C50.1136 646.019 44.4606 641.989 38.8076 637.9L37.9255 639.119L37.0434 640.339C42.7078 644.436 48.3723 648.474 54.0368 652.451L54.9016 651.219ZM37.9255 639.119L38.8076 637.9C33.2829 633.903 28.5855 629.147 24.7094 623.626L23.4777 624.491L22.246 625.356C26.3161 631.153 31.2506 636.148 37.0434 640.339L37.9255 639.119ZM23.4777 624.491L24.7094 623.626C20.9021 618.204 19.0229 612.422 19.0229 606.251H17.518H16.013C16.013 613.082 18.1069 619.461 22.246 625.356L23.4777 624.491ZM17.518 606.251H19.0229C19.0229 598.125 21.9711 591.833 27.8408 587.205L26.909 586.024L25.9772 584.842C19.3255 590.086 16.013 597.28 16.013 606.251H17.518ZM26.909 586.024L27.8437 587.203C33.8852 582.416 42.07 579.944 52.5539 579.944V578.439V576.934C41.6068 576.934 32.695 579.518 25.9743 584.844L26.909 586.024ZM52.5539 578.439V579.944C63.1827 579.944 73.0168 582.068 82.0763 586.303L82.7137 584.94L83.3511 583.577C73.8692 579.144 63.5968 576.934 52.5539 576.934V578.439ZM82.7137 584.94L81.334 584.339L78.2639 591.382L79.6435 591.983L81.0231 592.585L84.0933 585.541L82.7137 584.94ZM122.944 709.733H121.439V711.238H122.944V709.733ZM122.944 592.525V591.02H121.439V592.525H122.944ZM177.665 592.525H179.17V591.02H177.665V592.525ZM177.665 599.749V601.254H179.17V599.749H177.665ZM131.252 599.749V598.244H129.747V599.749H131.252ZM131.252 642.37H129.747V643.875H131.252V642.37ZM173.15 642.37H174.655V640.865H173.15V642.37ZM173.15 649.413V650.918H174.655V649.413H173.15ZM131.252 649.413V647.908H129.747V649.413H131.252ZM131.252 702.148H129.747V703.653H131.252V702.148ZM179.471 702.148H180.976V700.643H179.471V702.148ZM179.471 709.733V711.238H180.976V709.733H179.471ZM122.944 709.733H124.449V592.525H122.944H121.439V709.733H122.944ZM122.944 592.525V594.03H177.665V592.525V591.02H122.944V592.525ZM177.665 592.525H176.16V599.749H177.665H179.17V592.525H177.665ZM177.665 599.749V598.244H131.252V599.749V601.254H177.665V599.749ZM131.252 599.749H129.747V642.37H131.252H132.757V599.749H131.252ZM131.252 642.37V643.875H173.15V642.37V640.865H131.252V642.37ZM173.15 642.37H171.645V649.413H173.15H174.655V642.37H173.15ZM173.15 649.413V647.908H131.252V649.413V650.918H173.15V649.413ZM131.252 649.413H129.747V702.148H131.252H132.757V649.413H131.252ZM131.252 702.148V703.653H179.471V702.148V700.643H131.252V702.148ZM179.471 702.148H177.966V709.733H179.471H180.976V702.148H179.471ZM179.471 709.733V708.228H122.944V709.733V711.238H179.471V709.733ZM221.001 669.098V667.593H219.995L219.61 668.524L221.001 669.098ZM204.206 709.733V711.238H205.212L205.597 710.308L204.206 709.733ZM195.718 709.733L194.328 709.154L193.46 711.238H195.718V709.733ZM244.84 591.803V590.298H243.837L243.451 591.224L244.84 591.803ZM249.716 591.803L251.104 591.22L250.717 590.298H249.716V591.803ZM299.2 709.733V711.238H301.464L300.588 709.151L299.2 709.733ZM289.99 709.733L288.601 710.313L288.987 711.238H289.99V709.733ZM273.013 669.098L274.402 668.518L274.016 667.593H273.013V669.098ZM246.827 605.167L248.247 604.67L246.792 600.512L245.399 604.691L246.827 605.167ZM241.951 618.712L243.34 619.291L243.344 619.281L243.348 619.271L241.951 618.712ZM223.891 662.055L222.502 661.476L221.633 663.56H223.891V662.055ZM270.124 662.055V663.56H272.376L271.514 661.479L270.124 662.055ZM252.245 618.892L250.853 619.464L250.854 619.468L252.245 618.892ZM221.001 669.098L219.61 668.524L202.815 709.158L204.206 709.733L205.597 710.308L222.392 669.673L221.001 669.098ZM204.206 709.733V708.228H195.718V709.733V711.238H204.206V709.733ZM195.718 709.733L197.107 710.312L246.229 592.381L244.84 591.803L243.451 591.224L194.328 709.154L195.718 709.733ZM244.84 591.803V593.308H249.716V591.803V590.298H244.84V591.803ZM249.716 591.803L248.329 592.385L297.812 710.315L299.2 709.733L300.588 709.151L251.104 591.22L249.716 591.803ZM299.2 709.733V708.228H289.99V709.733V711.238H299.2V709.733ZM289.99 709.733L291.378 709.153L274.402 668.518L273.013 669.098L271.625 669.679L288.601 710.313L289.99 709.733ZM273.013 669.098V667.593H221.001V669.098V670.603H273.013V669.098ZM246.827 605.167L245.399 604.691C243.598 610.093 241.983 614.578 240.553 618.153L241.951 618.712L243.348 619.271C244.807 615.622 246.443 611.077 248.255 605.643L246.827 605.167ZM241.951 618.712L240.561 618.133L222.502 661.476L223.891 662.055L225.28 662.634L243.34 619.291L241.951 618.712ZM223.891 662.055V663.56H270.124V662.055V660.55H223.891V662.055ZM270.124 662.055L271.514 661.479L253.635 618.316L252.245 618.892L250.854 619.468L268.733 662.631L270.124 662.055ZM252.245 618.892L253.637 618.321C250.866 611.573 249.075 607.034 248.247 604.67L246.827 605.167L245.406 605.664C246.264 608.116 248.085 612.727 250.853 619.464L252.245 618.892ZM393.076 709.733H391.571V711.238H393.076V709.733ZM393.076 592.525V591.02H391.571V592.525H393.076ZM401.384 592.525H402.889V591.02H401.384V592.525ZM401.384 702.148H399.879V703.653H401.384V702.148ZM455.202 702.148H456.707V700.643H455.202V702.148ZM455.202 709.733V711.238H456.707V709.733H455.202ZM393.076 709.733H394.581V592.525H393.076H391.571V709.733H393.076ZM393.076 592.525V594.03H401.384V592.525V591.02H393.076V592.525ZM401.384 592.525H399.879V702.148H401.384H402.889V592.525H401.384ZM401.384 702.148V703.653H455.202V702.148V700.643H401.384V702.148ZM455.202 702.148H453.697V709.733H455.202H456.707V702.148H455.202ZM455.202 709.733V708.228H393.076V709.733V711.238H455.202V709.733ZM488.135 669.098V667.593H487.129L486.744 668.524L488.135 669.098ZM471.34 709.733V711.238H472.346L472.73 710.308L471.34 709.733ZM462.851 709.733L461.462 709.154L460.594 711.238H462.851V709.733ZM511.974 591.803V590.298H510.971L510.585 591.224L511.974 591.803ZM516.85 591.803L518.238 591.22L517.851 590.298H516.85V591.803ZM566.334 709.733V711.238H568.597L567.722 709.151L566.334 709.733ZM557.123 709.733L555.735 710.313L556.121 711.238H557.123V709.733ZM540.147 669.098L541.536 668.518L541.149 667.593H540.147V669.098ZM513.961 605.167L515.381 604.67L513.926 600.512L512.533 604.691L513.961 605.167ZM509.084 618.712L510.474 619.291L510.478 619.281L510.482 619.271L509.084 618.712ZM491.025 662.055L489.635 661.476L488.767 663.56H491.025V662.055ZM537.258 662.055V663.56H539.51L538.648 661.479L537.258 662.055ZM519.378 618.892L517.986 619.464L517.988 619.468L519.378 618.892ZM488.135 669.098L486.744 668.524L469.949 709.158L471.34 709.733L472.73 710.308L489.526 669.673L488.135 669.098ZM471.34 709.733V708.228H462.851V709.733V711.238H471.34V709.733ZM462.851 709.733L464.241 710.312L513.363 592.381L511.974 591.803L510.585 591.224L461.462 709.154L462.851 709.733ZM511.974 591.803V593.308H516.85V591.803V590.298H511.974V591.803ZM516.85 591.803L515.462 592.385L564.946 710.315L566.334 709.733L567.722 709.151L518.238 591.22L516.85 591.803ZM566.334 709.733V708.228H557.123V709.733V711.238H566.334V709.733ZM557.123 709.733L558.512 709.153L541.536 668.518L540.147 669.098L538.759 669.679L555.735 710.313L557.123 709.733ZM540.147 669.098V667.593H488.135V669.098V670.603H540.147V669.098ZM513.961 605.167L512.533 604.691C510.732 610.093 509.117 614.578 507.687 618.153L509.084 618.712L510.482 619.271C511.941 615.622 513.577 611.077 515.388 605.643L513.961 605.167ZM509.084 618.712L507.695 618.133L489.635 661.476L491.025 662.055L492.414 662.634L510.474 619.291L509.084 618.712ZM491.025 662.055V663.56H537.258V662.055V660.55H491.025V662.055ZM537.258 662.055L538.648 661.479L520.769 618.316L519.378 618.892L517.988 619.468L535.867 662.631L537.258 662.055ZM519.378 618.892L520.771 618.321C517.999 611.573 516.209 607.034 515.381 604.67L513.961 605.167L512.54 605.664C513.398 608.116 515.219 612.727 517.986 619.464L519.378 618.892ZM611.735 709.733V711.238H613.24V709.733H611.735ZM603.609 709.733H602.104V711.238H603.609V709.733ZM603.609 667.834H605.114V667.425L604.906 667.072L603.609 667.834ZM559.362 592.525V591.02H556.732L558.065 593.288L559.362 592.525ZM569.295 592.525L570.593 591.763L570.157 591.02H569.295V592.525ZM603.428 650.678L604.774 650.004L604.751 649.959L604.726 649.916L603.428 650.678ZM607.943 659.166L606.879 660.23L608.405 661.756L609.309 659.796L607.943 659.166ZM612.458 650.858L611.159 650.098L611.154 650.107L612.458 650.858ZM646.591 592.525V591.02H645.728L645.292 591.765L646.591 592.525ZM655.982 592.525L657.281 593.285L658.605 591.02H655.982V592.525ZM611.735 668.195L610.436 667.436L610.23 667.788V668.195H611.735ZM611.735 709.733V708.228H603.609V709.733V711.238H611.735V709.733ZM603.609 709.733H605.114V667.834H603.609H602.104V709.733H603.609ZM603.609 667.834L604.906 667.072L560.66 591.763L559.362 592.525L558.065 593.288L602.311 668.597L603.609 667.834ZM559.362 592.525V594.03H569.295V592.525V591.02H559.362V592.525ZM569.295 592.525L567.997 593.287L602.13 651.439L603.428 650.678L604.726 649.916L570.593 591.763L569.295 592.525ZM603.428 650.678L602.082 651.351C603.408 654.003 604.453 656.048 605.215 657.479C605.595 658.194 605.91 658.767 606.158 659.192C606.282 659.403 606.396 659.59 606.499 659.745C606.582 659.872 606.717 660.068 606.879 660.23L607.943 659.166L609.007 658.101C609.079 658.173 609.087 658.202 609.009 658.084C608.949 657.994 608.866 657.859 608.757 657.672C608.538 657.299 608.245 656.766 607.872 656.066C607.128 654.668 606.097 652.65 604.774 650.004L603.428 650.678ZM607.943 659.166L609.309 659.796C610 658.301 611.472 655.587 613.762 651.609L612.458 650.858L611.154 650.107C608.869 654.076 607.331 656.9 606.576 658.535L607.943 659.166ZM612.458 650.858L613.757 651.618L647.89 593.285L646.591 592.525L645.292 591.765L611.159 650.098L612.458 650.858ZM646.591 592.525V594.03H655.982V592.525V591.02H646.591V592.525ZM655.982 592.525L654.683 591.765L610.436 667.436L611.735 668.195L613.035 668.955L657.281 593.285L655.982 592.525ZM611.735 668.195H610.23V709.733H611.735H613.24V668.195H611.735ZM682.256 709.733H680.751V711.238H682.256V709.733ZM682.256 592.525V591.02H680.751V592.525H682.256ZM736.977 592.525H738.482V591.02H736.977V592.525ZM736.977 599.749V601.254H738.482V599.749H736.977ZM690.563 599.749V598.244H689.058V599.749H690.563ZM690.563 642.37H689.058V643.875H690.563V642.37ZM732.462 642.37H733.967V640.865H732.462V642.37ZM732.462 649.413V650.918H733.967V649.413H732.462ZM690.563 649.413V647.908H689.058V649.413H690.563ZM690.563 702.148H689.058V703.653H690.563V702.148ZM738.783 702.148H740.288V700.643H738.783V702.148ZM738.783 709.733V711.238H740.288V709.733H738.783ZM682.256 709.733H683.761V592.525H682.256H680.751V709.733H682.256ZM682.256 592.525V594.03H736.977V592.525V591.02H682.256V592.525ZM736.977 592.525H735.472V599.749H736.977H738.482V592.525H736.977ZM736.977 599.749V598.244H690.563V599.749V601.254H736.977V599.749ZM690.563 599.749H689.058V642.37H690.563H692.068V599.749H690.563ZM690.563 642.37V643.875H732.462V642.37V640.865H690.563V642.37ZM732.462 642.37H730.957V649.413H732.462H733.967V642.37H732.462ZM732.462 649.413V647.908H690.563V649.413V650.918H732.462V649.413ZM690.563 649.413H689.058V702.148H690.563H692.068V649.413H690.563ZM690.563 702.148V703.653H738.783V702.148V700.643H690.563V702.148ZM738.783 702.148H737.278V709.733H738.783H740.288V702.148H738.783ZM738.783 709.733V708.228H682.256V709.733V711.238H738.783V709.733ZM774.534 709.733H773.029V711.238H774.534V709.733ZM774.534 593.067L774.411 591.567L773.029 591.679V593.067H774.534ZM828.352 600.471L827.411 601.647L827.417 601.651L827.424 601.656L828.352 600.471ZM833.047 644.537L834.292 645.383L834.292 645.383L833.047 644.537ZM819.141 659.166L818.261 657.945L817.014 658.844L817.939 660.071L819.141 659.166ZM845.689 693.299L844.572 694.307L844.589 694.326L844.607 694.344L845.689 693.299ZM868.083 705.399L869.587 705.447L869.632 704.068L868.262 703.904L868.083 705.399ZM867.902 710.997L867.876 712.502L869.359 712.528L869.407 711.046L867.902 710.997ZM851.468 708.108L850.842 709.476L850.859 709.484L850.875 709.491L851.468 708.108ZM838.826 698.536L837.718 699.554L837.725 699.562L837.733 699.57L838.826 698.536ZM811.556 662.597L812.776 661.716L812.326 661.092H811.556V662.597ZM782.841 661.694L782.937 660.192L781.336 660.089V661.694H782.841ZM782.841 709.733V711.238H784.346V709.733H782.841ZM822.211 646.343L821.073 645.358L821.073 645.358L822.211 646.343ZM821.85 605.528L822.765 604.333L822.765 604.333L821.85 605.528ZM782.841 599.749L782.73 598.248L781.336 598.351V599.749H782.841ZM782.841 654.831H781.336V656.235L782.737 656.333L782.841 654.831ZM774.534 709.733H776.039V593.067H774.534H773.029V709.733H774.534ZM774.534 593.067L774.656 594.567C784.985 593.726 793.731 593.308 800.901 593.308V591.803V590.298C793.623 590.298 784.79 590.722 774.411 591.567L774.534 593.067ZM800.901 591.803V593.308C811.706 593.308 820.504 596.121 827.411 601.647L828.352 600.471L829.292 599.296C821.751 593.264 812.249 590.298 800.901 590.298V591.803ZM828.352 600.471L827.424 601.656C834.224 606.983 837.683 614.639 837.683 624.852H839.187H840.692C840.692 613.875 836.927 605.277 829.28 599.287L828.352 600.471ZM839.187 624.852H837.683C837.683 631.646 835.731 637.914 831.803 643.691L833.047 644.537L834.292 645.383C838.55 639.121 840.692 632.265 840.692 624.852H839.187ZM833.047 644.537L831.803 643.691C827.794 649.586 823.277 654.328 818.261 657.945L819.141 659.166L820.021 660.386C825.359 656.538 830.113 651.528 834.292 645.383L833.047 644.537ZM819.141 659.166L817.939 660.071C832.247 679.068 841.145 690.513 844.572 694.307L845.689 693.299L846.806 692.29C843.491 688.62 834.69 677.309 820.343 658.26L819.141 659.166ZM845.689 693.299L844.607 694.344C851.656 701.641 859.424 705.88 867.905 706.893L868.083 705.399L868.262 703.904C860.608 702.99 853.447 699.163 846.771 692.253L845.689 693.299ZM868.083 705.399L866.579 705.35L866.398 710.949L867.902 710.997L869.407 711.046L869.587 705.447L868.083 705.399ZM867.902 710.997L867.929 709.492C861.298 709.374 856.032 708.426 852.061 706.724L851.468 708.108L850.875 709.491C855.332 711.401 861.022 712.379 867.876 712.502L867.902 710.997ZM851.468 708.108L852.094 706.739C848.103 704.914 844.041 701.859 839.92 697.502L838.826 698.536L837.733 699.57C842.039 704.122 846.406 707.448 850.842 709.476L851.468 708.108ZM838.826 698.536L839.934 697.518C835.914 693.143 826.882 681.247 812.776 661.716L811.556 662.597L810.336 663.478C824.403 682.956 833.551 695.019 837.718 699.554L838.826 698.536ZM811.556 662.597V661.092C801.835 661.092 792.295 660.792 782.937 660.192L782.841 661.694L782.745 663.196C792.169 663.8 801.773 664.102 811.556 664.102V662.597ZM782.841 661.694H781.336V709.733H782.841H784.346V661.694H782.841ZM782.841 709.733V708.228H774.534V709.733V711.238H782.841V709.733ZM807.041 655.734V657.239C812.412 657.239 817.851 653.681 823.349 647.328L822.211 646.343L821.073 645.358C815.736 651.526 811.061 654.229 807.041 654.229V655.734ZM822.211 646.343L823.349 647.328C829.005 640.793 831.843 633.159 831.843 624.491H830.338H828.833C828.833 632.438 826.254 639.372 821.073 645.358L822.211 646.343ZM830.338 624.491H831.843C831.843 615.803 828.86 609.002 822.765 604.333L821.85 605.528L820.935 606.723C826.157 610.723 828.833 616.564 828.833 624.491H830.338ZM821.85 605.528L822.765 604.333C816.781 599.75 809.089 597.522 799.817 597.522V599.027V600.532C808.606 600.532 815.602 602.638 820.935 606.723L821.85 605.528ZM799.817 599.027V597.522C794.954 597.522 789.256 597.765 782.73 598.248L782.841 599.749L782.952 601.25C789.429 600.77 795.049 600.532 799.817 600.532V599.027ZM782.841 599.749H781.336V654.831H782.841H784.346V599.749H782.841ZM782.841 654.831L782.737 656.333C791.435 656.937 799.537 657.239 807.041 657.239V655.734V654.229C799.616 654.229 791.585 653.93 782.945 653.33L782.841 654.831ZM894.683 602.277L893.769 601.082L893.769 601.082L894.683 602.277ZM896.669 632.979L897.717 631.898L897.709 631.891L896.669 632.979ZM911.478 644.898L910.615 646.131L910.629 646.141L910.644 646.151L911.478 644.898ZM924.12 653.748L923.188 654.929L923.188 654.929L924.12 653.748ZM932.428 661.152L933.492 660.088L933.482 660.078L933.472 660.068L932.428 661.152ZM931.164 704.315L932.077 705.511L932.08 705.509L931.164 704.315ZM873.192 702.509L871.951 701.658L871.148 702.828L872.269 703.698L873.192 702.509ZM877.526 696.188L878.369 694.942L877.131 694.104L876.285 695.337L877.526 696.188ZM924.843 698.716L923.944 697.509L923.937 697.514L923.931 697.519L924.843 698.716ZM924.843 665.848L923.778 666.912L923.785 666.918L923.791 666.924L924.843 665.848ZM910.214 654.109L909.351 655.342L909.363 655.35L910.214 654.109ZM897.572 645.079L896.632 646.254L896.651 646.269L896.669 646.283L897.572 645.079ZM889.084 637.494L888.02 638.558L888.03 638.568L888.04 638.578L889.084 637.494ZM888.362 597.221L887.428 596.041L887.422 596.045L887.416 596.05L888.362 597.221ZM939.471 596.318L940.839 596.946L941.45 595.615L940.136 594.968L939.471 596.318ZM936.401 603L935.745 604.355L937.127 605.023L937.768 603.628L936.401 603ZM910.575 597.582V596.077C903.831 596.077 898.187 597.703 893.769 601.082L894.683 602.277L895.597 603.473C899.366 600.591 904.317 599.087 910.575 599.087V597.582ZM894.683 602.277L893.769 601.082C889.263 604.528 887.038 609.386 887.038 615.461H888.542H890.047C890.047 610.218 891.916 606.288 895.597 603.473L894.683 602.277ZM888.542 615.461H887.038C887.038 622.437 889.964 628.653 895.63 634.067L896.669 632.979L897.709 631.891C892.539 626.95 890.047 621.488 890.047 615.461H888.542ZM896.669 632.979L895.622 634.06C899.549 637.864 904.552 641.887 910.615 646.131L911.478 644.898L912.341 643.665C906.365 639.482 901.495 635.559 897.717 631.898L896.669 632.979ZM911.478 644.898L910.644 646.151C916.786 650.245 920.953 653.165 923.188 654.929L924.12 653.748L925.053 652.566C922.712 650.719 918.452 647.738 912.313 643.646L911.478 644.898ZM924.12 653.748L923.188 654.929C925.422 656.693 928.152 659.124 931.384 662.236L932.428 661.152L933.472 660.068C930.202 656.92 927.394 654.415 925.053 652.566L924.12 653.748ZM932.428 661.152L931.364 662.216C937.007 667.859 939.772 674.288 939.772 681.56H941.277H942.782C942.782 673.42 939.648 666.244 933.492 660.088L932.428 661.152ZM941.277 681.56H939.772C939.772 691.178 936.551 698.281 930.247 703.121L931.164 704.315L932.08 705.509C939.261 699.995 942.782 691.928 942.782 681.56H941.277ZM931.164 704.315L930.25 703.119C923.985 707.903 915.023 710.395 903.171 710.395V711.9V713.405C915.399 713.405 925.099 710.84 932.077 705.511L931.164 704.315ZM903.171 711.9V710.395C891.527 710.395 881.875 707.343 874.114 701.32L873.192 702.509L872.269 703.698C880.642 710.197 890.976 713.405 903.171 713.405V711.9ZM873.192 702.509L874.433 703.36L878.767 697.039L877.526 696.188L876.285 695.337L871.951 701.658L873.192 702.509ZM877.526 696.188L876.683 697.435C885.098 703.127 894.057 706.001 903.532 706.001V704.496V702.991C894.707 702.991 886.328 700.326 878.369 694.942L877.526 696.188ZM903.532 704.496V706.001C912.872 706.001 920.343 704.037 925.755 699.914L924.843 698.716L923.931 697.519C919.229 701.102 912.493 702.991 903.532 702.991V704.496ZM924.843 698.716L925.741 699.924C931.335 695.761 934.113 689.876 934.113 682.463H932.608H931.103C931.103 689.015 928.705 693.966 923.944 697.509L924.843 698.716ZM932.608 682.463H934.113C934.113 675.957 931.298 670.05 925.894 664.771L924.843 665.848L923.791 666.924C928.741 671.759 931.103 676.928 931.103 682.463H932.608ZM924.843 665.848L925.907 664.784C922.207 661.084 917.251 657.113 911.066 652.868L910.214 654.109L909.363 655.35C915.458 659.533 920.254 663.387 923.778 666.912L924.843 665.848ZM910.214 654.109L911.077 652.876C905.057 648.662 900.861 645.665 898.475 643.875L897.572 645.079L896.669 646.283C899.099 648.105 903.331 651.128 909.351 655.342L910.214 654.109ZM897.572 645.079L898.513 643.904C896.153 642.016 893.359 639.521 890.128 636.41L889.084 637.494L888.04 638.578C891.311 641.727 894.176 644.289 896.632 646.254L897.572 645.079ZM889.084 637.494L890.148 636.43C884.267 630.548 881.379 623.818 881.379 616.183H879.874H878.369C878.369 624.682 881.621 632.159 888.02 638.558L889.084 637.494ZM879.874 616.183H881.379C881.379 608.515 884.044 602.647 889.308 598.391L888.362 597.221L887.416 596.05C881.362 600.945 878.369 607.718 878.369 616.183H879.874ZM888.362 597.221L889.296 598.401C894.726 594.102 902.302 591.863 912.201 591.863V590.358V588.853C901.873 588.853 893.556 591.189 887.428 596.041L888.362 597.221ZM912.201 590.358V591.863C922.113 591.863 930.971 593.809 938.806 597.668L939.471 596.318L940.136 594.968C931.838 590.88 922.516 588.853 912.201 588.853V590.358ZM939.471 596.318L938.103 595.689L935.033 602.371L936.401 603L937.768 603.628L940.839 596.946L939.471 596.318ZM936.401 603L937.056 601.645C929.354 597.918 920.515 596.077 910.575 596.077V597.582V599.087C920.14 599.087 928.518 600.857 935.745 604.355L936.401 603Z" fill="white" mask="url(#path-1-outside-1_75_224)"/>
<g clip-path="url(#clip0_75_224)">
<path d="M760.069 192.28C754.807 179.845 747.586 169.133 737.99 159.537C728.394 149.941 717.681 142.72 705.259 137.458C700.021 135.237 694.641 133.468 689.285 132.173C645.971 121.734 606.423 99.4061 575.104 67.7315C531.921 24.0617 474.19 0 412.551 0C381.696 0 351.767 6.04513 323.584 17.9572C296.375 29.4655 271.933 45.9501 250.936 66.9358C229.938 87.9216 213.466 112.363 201.957 139.584C190.045 167.767 184 197.696 184 228.551C184 265.606 193.074 302.411 210.235 334.964C218.632 350.89 229.059 365.95 241.233 379.738C259.689 400.629 274.344 424.584 284.558 450.522C284.772 451.069 284.998 451.627 285.259 452.221C288.976 461.021 294.095 468.598 300.876 475.38C307.658 482.173 315.235 487.28 324.047 490.997C333.157 494.857 342.444 496.722 352.42 496.722C362.397 496.722 371.684 494.821 380.603 491.08C410.14 478.681 441.66 472.411 473.323 472.411C492.147 472.411 511.019 474.631 529.534 479.097C535.164 480.451 540.936 481.14 546.672 481.14C556.648 481.14 565.924 479.263 575.045 475.415C583.845 471.698 591.423 466.579 598.216 459.798C605.009 453.016 610.081 445.487 613.798 436.722C634.368 388.254 670.33 347.921 716.114 321.947C724.13 317.399 731.292 311.924 738.014 305.214C747.61 295.617 754.831 284.917 760.092 272.47C765.544 259.596 768.192 246.484 768.192 232.375C768.192 218.266 765.544 205.154 760.092 192.28H760.069ZM352.408 468.836C280.615 468.836 210.39 285.487 230.675 196.449C262.682 55.9976 390.259 20.8907 479.071 33.0285C550.199 42.7553 662.765 181.449 680.08 251.116C723.002 423.848 424.202 468.836 352.408 468.836Z" fill="white"/>
</g>
<defs>
<clipPath id="clip0_75_224">
<rect width="584.168" height="496.745" fill="white" transform="translate(184)"/>
</clipPath>
</defs>
</svg>
