<svg width="26" height="21" viewBox="0 0 26 21" fill="none" xmlns="http://www.w3.org/2000/svg">
<path d="M15.829 2.98716C18.2814 3.16552 20.377 4.19105 21.9822 5.39494C23.7211 6.688 24.9696 8.29318 25.5939 9.36331C25.8614 9.80919 25.8614 10.3888 25.5939 10.8347C24.9696 11.9048 23.7211 13.51 21.9822 14.8031C20.377 16.007 18.2814 17.0325 15.829 17.2109L12.3957 19.797C11.9052 20.1537 11.281 20.1983 10.7459 19.8862C10.2554 19.5295 10.0325 18.9498 10.1217 18.3702L10.5676 16.2299C9.6758 15.8286 8.9178 15.3382 8.20438 14.8031C7.53556 14.3126 6.91132 13.733 6.42084 13.1979L2.27412 15.6057C1.69447 15.9178 0.981059 15.8286 0.535174 15.3827C0.0892903 14.9369 0.000113469 14.2234 0.312232 13.6884L2.3633 10.0767L0.312232 6.50965C0.000113469 5.97459 0.0892903 5.26117 0.535174 4.81529C0.981059 4.3694 1.69447 4.28023 2.27412 4.59235L6.42084 7.00012C6.91132 6.46506 7.53556 5.88541 8.20438 5.39494C8.9178 4.85988 9.6758 4.3694 10.5676 3.96811L10.1217 1.82786C10.0325 1.24821 10.2554 0.623976 10.7459 0.311858C11.281 -0.000261359 11.9052 0.0443271 12.3957 0.401034L15.829 2.98716ZM18.6827 8.64989C17.8801 8.64989 17.2558 9.31872 17.2558 10.0767C17.2558 10.8793 17.8801 11.5035 18.6827 11.5035C19.4407 11.5035 20.1095 10.8793 20.1095 10.0767C20.1095 9.31872 19.4407 8.64989 18.6827 8.64989Z" fill="white"/>
</svg>
